# xmcd
#
# Track frame offsets:
#	150
#	18756
#	38341
#	58992
#	81531
#	98718
#	119539
#	139405
#	155953
#	176224
#	196307
#	215445
#	233592
#
# Disc length: 3376 seconds
#
# Revision: 0
# Processed by: cddbd v1.5.1PL2 Copyright (c) Steve Scherf et al.
# Submitted via: dBpowerAMP V4.0
#
DISCID=b80d2e0d
DTITLE=Ernesto Mendoza - Como tu querias
DYEAR=1900
DGENRE=
TTITLE0=Songo Sorongo
TTITLE1=Quiero estar contigo
TTITLE2=Linda, linda
TTITLE3=Le brinca le ojo
TTITLE4=Siete palabras
TTITLE5=Ella es
TTITLE6=Flor del valle
TTITLE7=Solamente tu
TTITLE8=Diras, diras
TTITLE9=Estaba en temple(El Infiel)
TTITLE10=Se le ve
TTITLE11=No permitas que se acabe el amor
TTITLE12=Estas muy buena
EXTD=
EXTT0=
EXTT1=
EXTT2=
EXTT3=
EXTT4=
EXTT5=
EXTT6=
EXTT7=
EXTT8=
EXTT9=
EXTT10=
EXTT11=
EXTT12=
PLAYORDER=
